# xmcd CD database file
#
# Track frame offsets:
#	150
#	27943
#	55857
#	78588
#	101717
#	126372
#	162832
#	182421
#	203686
#	227546
#	252489
#
# Disc length: 3676 seconds
#
# Revision: 0
# Processed by: cddbd v1.5.2PL0 Copyright (c) Steve Scherf et al.
# Submitted via: CDex 1.70beta2
#
DISCID=8b0e5a0b
DTITLE=Wolfgang Haffner - Round Silence
DYEAR=1900
DGENRE=Jazz
TTITLE0=Round Silence (feat. Dominic Miller)
TTITLE1=Left Side Of Field
TTITLE2=It's Not Safe (feat. Kim Sanders)
TTITLE3=Azul
TTITLE4=Stadium Jazz
TTITLE5=Nightsong (feat. Chuck Loeb)
TTITLE6=The Space In Between
TTITLE7=Tubes (feat. Nils Landgren)
TTITLE8=Ride
TTITLE9=Wordless
TTITLE10=The Flow
EXTD=
EXTT0=
EXTT1=
EXTT2=
EXTT3=
EXTT4=
EXTT5=
EXTT6=
EXTT7=
EXTT8=
EXTT9=
EXTT10=
PLAYORDER=
